<?xml version="1.0" encoding="UTF-8" standalone="no"?>
<svg xmlns="http://www.w3.org/2000/svg" viewBox="0 0 200 50" width="200" height="50">
  <g>
    <path d="M65.8 31.2h8.1c0.9 0 1.6-0.7 1.6-1.6V19.4L65.8 28.2V31.2z" fill="#4A8CFF"/>
    <path d="M65.8 10.8v10.8l9.7-8.8v-3.7c0-2.6-3.1-4-5-2.3L65.8 10.8z" fill="#4A8CFF"/>
    <rect x="54.5" y="10.8" width="10.8" height="20.4" fill="#4A8CFF"/>
    <path d="M81.9 17h5.9v13h-5.9v-1.5c-0.6 1-2.1 1.8-3.8 1.8 -3.3 0-5.4-2.3-5.4-6 0-3.6 2.1-6 5.4-6 1.7 0 3.1 0.8 3.8 1.8V17zM82 24.3c0-1.7-1.1-2.9-2.6-2.9 -1.5 0-2.6 1.2-2.6 2.9 0 1.7 1.1 2.9 2.6 2.9S82 26 82 24.3z" fill="#2D8CFF"/>
    <path d="M98.7 25.8c0 0.3 0 0.6-0.1 0.9H91c0.3 1 1.2 1.5 2.3 1.5 0.8 0 1.6-0.3 2.1-0.9l2.7 2.8c-1.1 1.3-2.8 2-5 2 -3.9 0-6.8-2.6-6.8-6s2.9-6 6.3-6c3.3 0 6 2.5 6 5.7zM94.3 21.2c-1.1 0-1.9 0.7-2.2 1.6h4.3C96.2 21.9 95.4 21.2 94.3 21.2z" fill="#2D8CFF"/>
    <path d="M99.9 30h5.9v-1.5c0.6 1 2.1 1.8 3.8 1.8 3.3 0 5.4-2.3 5.4-6 0-3.6-2.1-6-5.4-6 -1.7 0-3.1 0.8-3.8 1.8V17h-5.9V30zM105.9 24.3c0-1.7 1.1-2.9 2.6-2.9 1.5 0 2.6 1.2 2.6 2.9 0 1.7-1.1 2.9-2.6 2.9C107 27.2 105.9 26 105.9 24.3z" fill="#2D8CFF"/>
    <path d="M140.9 17h5.9v13h-5.9v-1.5c-0.6 1-2.1 1.8-3.8 1.8 -3.3 0-5.4-2.3-5.4-6 0-3.6 2.1-6 5.4-6 1.7 0 3.1 0.8 3.8 1.8V17zM141 24.3c0-1.7-1.1-2.9-2.6-2.9 -1.5 0-2.6 1.2-2.6 2.9 0 1.7 1.1 2.9 2.6 2.9C140 27.2 141 26 141 24.3z" fill="#2D8CFF"/>
    <path d="M117.5 21.1v8.9h-5.9V21.1h-1.1v-4.1h1.1v-4.2h5.9v4.2h2.2v4.1H117.5z" fill="#2D8CFF"/>
    <path d="M123.1 30h5.9V17h-5.9V30zM123.1 15h5.9v-4.7h-5.9V15z" fill="#2D8CFF"/>
  </g>
</svg>